<svg width="1068" height="393" viewBox="0 0 1068 393" fill="none" xmlns="http://www.w3.org/2000/svg">
<g clip-path="url(#clip0_2227_29559)">
<path fill-rule="evenodd" clip-rule="evenodd" d="M-3.1875 229.131V1H95.5608C110.552 1 123.588 3.49859 134.669 8.49574C145.75 13.4929 154.332 20.5541 160.415 29.6794C166.499 38.5873 169.54 49.125 169.54 61.2918C169.54 72.3725 166.716 82.1495 161.067 90.623C155.418 99.0964 147.488 105.832 137.276 110.829C150.095 115.392 160.089 122.344 167.259 131.687C174.646 140.812 178.34 151.567 178.34 163.951C178.34 177.204 175.081 188.719 168.563 198.496C162.045 208.273 152.919 215.878 141.187 221.31C129.455 226.524 115.658 229.131 99.7975 229.131H-3.1875ZM31.0322 97.7928H93.6054C106.424 97.7928 116.636 94.7512 124.24 88.6676C131.844 82.5839 135.647 74.3279 135.647 63.899C135.647 53.4702 131.844 45.214 124.24 39.1305C116.636 33.047 106.424 30.0053 93.6054 30.0053H31.0322V97.7928ZM31.0322 200.126H97.1903C111.53 200.126 122.828 196.758 131.084 190.023C139.558 183.288 143.794 174.162 143.794 162.647C143.794 151.349 139.558 142.333 131.084 135.597C122.828 128.645 111.53 125.169 97.1903 125.169H31.0322V200.126ZM189.145 229.131L283.331 1H323.743L416.951 229.131H379.798L364.826 191.24L364.939 191.195L332.762 109.664L332.702 109.688L302.559 33.5902L272.152 109.732L272.035 109.686L263.691 130.918L262.473 133.968H262.493L249.038 168.208L224.669 229.131H189.145ZM440.472 229.131V1H474.691V106.592L585.172 1H628.517L509.888 111.481L632.102 229.131H585.172L474.691 120.932V229.131H440.472ZM647.345 229.131V1H681.564V106.592L792.045 1H835.39L716.762 111.481L838.975 229.131H792.045L681.564 120.932V229.131H647.345ZM844.133 229.131L938.319 1H978.731L1071.94 229.131H1034.79L1012.29 172.199L988.387 110.89L988.196 110.965L957.547 33.5902L925.669 113.41L925.53 113.355L893.298 194.864L893.354 194.885L879.657 229.131H844.133Z" fill="#071F40"/>
<path d="M292.728 392.999V304.866H257.391V295.229H338.82V304.866H303.482V392.999H292.728ZM359.238 392.999V295.229H401.139C407.564 295.229 413.151 296.392 417.9 298.72C422.649 301.048 426.327 304.307 428.934 308.497C431.634 312.688 432.985 317.623 432.985 323.303C432.985 329.728 431.076 335.268 427.258 339.924C423.533 344.486 418.505 347.699 412.173 349.561L434.102 392.999H422.23L401.279 350.958H369.992V392.999H359.238ZM369.992 341.879H400.441C407.052 341.879 412.313 340.203 416.224 336.851C420.228 333.499 422.23 328.983 422.23 323.303C422.23 317.716 420.228 313.246 416.224 309.894C412.313 306.542 407.052 304.866 400.441 304.866H369.992V341.879ZM447.692 392.999L488.199 295.229H501.188L541.414 392.999H529.682L517.39 362.271H471.299L458.865 392.999H447.692ZM475.07 353.053H513.619L494.344 305.145L475.07 353.053ZM573.878 392.999L533.793 295.229H545.385L580.722 382.943L616.618 295.229H627.513L586.868 392.999H573.878ZM646.047 392.999V295.229H716.023V304.726H656.802V338.946H695.491V348.304H656.802V383.501H716.582V392.999H646.047ZM739.381 392.999V295.229H750.135V383.362H808.379V392.999H739.381Z" fill="#071F40"/>
</g>
<defs>
<clipPath id="clip0_2227_29559">
<rect width="1067" height="393" fill="white" transform="translate(0.851562)"/>
</clipPath>
</defs>
</svg>
