<svg width="34" height="34" viewBox="0 0 34 34" fill="none" xmlns="http://www.w3.org/2000/svg">
<path d="M32.6834 11.4C32.6834 11.4 32.6834 11.4 32.6834 11.3167C31.509 8.11038 29.3782 5.34214 26.5792 3.38644C23.7802 1.43074 20.448 0.381958 17.0334 0.381958C13.6188 0.381958 10.2866 1.43074 7.48756 3.38644C4.68852 5.34214 2.55771 8.11038 1.38337 11.3167C1.38337 11.3167 1.38337 11.3167 1.38337 11.4C0.0719156 15.0182 0.0719156 18.9818 1.38337 22.6C1.38337 22.6 1.38337 22.6 1.38337 22.6833C2.55771 25.8896 4.68852 28.6579 7.48756 30.6136C10.2866 32.5693 13.6188 33.6181 17.0334 33.6181C20.448 33.6181 23.7802 32.5693 26.5792 30.6136C29.3782 28.6579 31.509 25.8896 32.6834 22.6833C32.6834 22.6833 32.6834 22.6833 32.6834 22.6C33.9948 18.9818 33.9948 15.0182 32.6834 11.4ZM4.10004 20.3333C3.52209 18.1487 3.52209 15.8513 4.10004 13.6667H7.20004C6.93343 15.8809 6.93343 18.1191 7.20004 20.3333H4.10004ZM5.46671 23.6667H7.80004C8.19124 25.1531 8.7504 26.5901 9.46671 27.95C7.8322 26.8366 6.46587 25.3734 5.46671 23.6667ZM7.80004 10.3333H5.46671C6.45149 8.63181 7.80036 7.16912 9.41671 6.05C8.71763 7.41208 8.17528 8.84904 7.80004 10.3333ZM15.3334 29.8333C13.2863 28.3311 11.8486 26.1421 11.2834 23.6667H15.3334V29.8333ZM15.3334 20.3333H10.5667C10.2557 18.122 10.2557 15.878 10.5667 13.6667H15.3334V20.3333ZM15.3334 10.3333H11.2834C11.8486 7.85795 13.2863 5.66887 15.3334 4.16667V10.3333ZM28.5334 10.3333H26.2C25.8088 8.84694 25.2497 7.4099 24.5334 6.05C26.1679 7.16346 27.5342 8.62657 28.5334 10.3333ZM18.6667 4.16667C20.7138 5.66887 22.1515 7.85795 22.7167 10.3333H18.6667V4.16667ZM18.6667 29.8333V23.6667H22.7167C22.1515 26.1421 20.7138 28.3311 18.6667 29.8333ZM23.4334 20.3333H18.6667V13.6667H23.4334C23.7444 15.878 23.7444 18.122 23.4334 20.3333ZM24.5834 27.95C25.2997 26.5901 25.8588 25.1531 26.25 23.6667H28.5834C27.5842 25.3734 26.2179 26.8366 24.5834 27.95ZM29.9 20.3333H26.8C26.9356 19.2274 27.0024 18.1142 27 17C27.0019 15.8858 26.9351 14.7726 26.8 13.6667H29.9C30.478 15.8513 30.478 18.1487 29.9 20.3333Z" fill="#22303A"/>
</svg>
