<svg width="34" height="34" viewBox="0 0 34 34" fill="none" xmlns="http://www.w3.org/2000/svg">
<path d="M32.2833 0.433373C31.0887 0.227595 29.8789 0.121674 28.6667 0.116706C24.5306 0.113316 20.4808 1.29933 17 3.53337C13.5102 1.32866 9.46108 0.171758 5.33333 0.20004C4.12108 0.205007 2.91134 0.310928 1.71667 0.516706C1.32534 0.58417 0.970967 0.789137 0.717354 1.09469C0.463741 1.40025 0.327559 1.78632 0.333332 2.18337V22.1834C0.329763 22.4283 0.380209 22.6709 0.481082 22.8941C0.581955 23.1173 0.730775 23.3155 0.916954 23.4746C1.10313 23.6337 1.32209 23.7499 1.55826 23.8148C1.79442 23.8797 2.04199 23.8917 2.28333 23.85C4.6717 23.4365 7.11867 23.5051 9.48011 24.0518C11.8415 24.5985 14.0697 25.6123 16.0333 27.0334L16.2333 27.15H16.4167C16.6015 27.2271 16.7998 27.2667 17 27.2667C17.2002 27.2667 17.3985 27.2271 17.5833 27.15H17.7667L17.9667 27.0334C19.9166 25.5805 22.1384 24.5339 24.5002 23.9556C26.8621 23.3773 29.3161 23.2791 31.7167 23.6667C31.958 23.7084 32.2056 23.6963 32.4417 23.6314C32.6779 23.5665 32.8969 23.4504 33.083 23.2913C33.2692 23.1322 33.418 22.934 33.5189 22.7108C33.6198 22.4876 33.6702 22.2449 33.6667 22V2.00004C33.6493 1.6203 33.5027 1.25789 33.2511 0.972936C32.9995 0.687981 32.658 0.497601 32.2833 0.433373ZM15.3333 22.5834C12.2498 20.9612 8.81753 20.1146 5.33333 20.1167C4.78333 20.1167 4.23333 20.1167 3.66667 20.1167V3.45004C4.22176 3.41805 4.77824 3.41805 5.33333 3.45004C8.88898 3.44611 12.367 4.48952 15.3333 6.45004V22.5834ZM30.3333 20.1834C29.7667 20.1834 29.2167 20.1834 28.6667 20.1834C25.1825 20.1812 21.7502 21.0279 18.6667 22.65V6.45004C21.633 4.48952 25.111 3.44611 28.6667 3.45004C29.2218 3.41805 29.7782 3.41805 30.3333 3.45004V20.1834ZM32.2833 27.1C31.0887 26.8943 29.8789 26.7883 28.6667 26.7834C24.5306 26.78 20.4808 27.966 17 30.2C13.5192 27.966 9.46939 26.78 5.33333 26.7834C4.12108 26.7883 2.91134 26.8943 1.71667 27.1C1.49971 27.1345 1.2917 27.2114 1.1046 27.3265C0.917502 27.4416 0.755001 27.5926 0.626443 27.7707C0.497885 27.9488 0.405808 28.1506 0.355505 28.3645C0.305202 28.5783 0.297667 28.7999 0.333332 29.0167C0.41803 29.4495 0.670816 29.8311 1.03632 30.0779C1.40182 30.3247 1.85023 30.4166 2.28333 30.3334C4.6717 29.9198 7.11867 29.9885 9.48011 30.5352C11.8415 31.0819 14.0697 32.0956 16.0333 33.5167C16.3156 33.7177 16.6535 33.8257 17 33.8257C17.3465 33.8257 17.6844 33.7177 17.9667 33.5167C19.9303 32.0956 22.1584 31.0819 24.5199 30.5352C26.8813 29.9885 29.3283 29.9198 31.7167 30.3334C32.1498 30.4166 32.5982 30.3247 32.9637 30.0779C33.3292 29.8311 33.582 29.4495 33.6667 29.0167C33.7023 28.7999 33.6948 28.5783 33.6445 28.3645C33.5942 28.1506 33.5021 27.9488 33.3736 27.7707C33.245 27.5926 33.0825 27.4416 32.8954 27.3265C32.7083 27.2114 32.5003 27.1345 32.2833 27.1Z" fill="#22303A"/>
</svg>
