<svg width="24" height="25" viewBox="0 0 24 25" fill="none" xmlns="http://www.w3.org/2000/svg">
<path d="M17.92 7.12C17.8185 6.87565 17.6243 6.68147 17.38 6.58C17.2598 6.52876 17.1307 6.50158 17 6.5H7C6.73478 6.5 6.48043 6.60536 6.29289 6.79289C6.10536 6.98043 6 7.23478 6 7.5C6 7.76522 6.10536 8.01957 6.29289 8.20711C6.48043 8.39464 6.73478 8.5 7 8.5H14.59L6.29 16.79C6.19627 16.883 6.12188 16.9936 6.07111 17.1154C6.02034 17.2373 5.9942 17.368 5.9942 17.5C5.9942 17.632 6.02034 17.7627 6.07111 17.8846C6.12188 18.0064 6.19627 18.117 6.29 18.21C6.38296 18.3037 6.49356 18.3781 6.61542 18.4289C6.73728 18.4797 6.86799 18.5058 7 18.5058C7.13201 18.5058 7.26272 18.4797 7.38458 18.4289C7.50644 18.3781 7.61704 18.3037 7.71 18.21L16 9.91V17.5C16 17.7652 16.1054 18.0196 16.2929 18.2071C16.4804 18.3946 16.7348 18.5 17 18.5C17.2652 18.5 17.5196 18.3946 17.7071 18.2071C17.8946 18.0196 18 17.7652 18 17.5V7.5C17.9984 7.36932 17.9712 7.24022 17.92 7.12Z" fill="white"/>
</svg>
