<svg width="1068" height="393" viewBox="0 0 1068 393" fill="none" xmlns="http://www.w3.org/2000/svg">
<g clip-path="url(#clip0_2227_29533)">
<path fill-rule="evenodd" clip-rule="evenodd" d="M1.45312 226.796V0.535156H99.392C114.261 0.535156 127.19 3.01326 138.18 7.96945C149.17 12.9256 157.681 19.929 163.715 28.9794C169.749 37.8144 172.766 48.2656 172.766 60.3327C172.766 71.3226 169.964 81.0195 164.362 89.4235C158.759 97.8274 150.894 104.508 140.766 109.464C153.479 113.989 163.392 120.884 170.503 130.15C177.83 139.201 181.493 149.868 181.493 162.15C181.493 175.295 178.261 186.716 171.796 196.413C165.331 206.11 156.281 213.651 144.645 219.039C133.008 224.21 119.325 226.796 103.594 226.796H1.45312ZM35.3923 96.5345H97.4526C110.167 96.5345 120.295 93.5179 127.837 87.4841C135.379 81.4503 139.15 73.2619 139.15 62.9186C139.15 52.5752 135.379 44.3869 127.837 38.3531C120.295 32.3195 110.167 29.3026 97.4526 29.3026H35.3923V96.5345ZM35.3923 198.029H101.009C115.231 198.029 126.436 194.689 134.624 188.009C143.028 181.328 147.23 172.278 147.23 160.857C147.23 149.652 143.028 140.709 134.624 134.029C126.436 127.134 115.231 123.686 101.009 123.686H35.3923V198.029ZM192.21 226.796L285.623 0.535156H325.704L418.148 226.796H381.299L366.451 189.215L366.562 189.171L334.649 108.309L334.589 108.332L304.694 32.8582L274.536 108.376L274.42 108.33L266.145 129.389L264.937 132.413H264.956L251.612 166.373L227.442 226.796H192.21ZM441.476 226.796V0.535156H475.415V105.262L584.99 0.535156H627.98L510.324 110.11L631.535 226.796H584.99L475.415 119.484V226.796H441.476ZM646.653 226.796V0.535156H680.592V105.262L790.167 0.535156H833.157L715.501 110.11L836.712 226.796H790.167L680.592 119.484V226.796H646.653ZM841.829 226.796L935.242 0.535156H975.323L1067.76 226.796H1030.92L1008.6 170.331L984.9 109.524L984.71 109.599L954.313 32.8582L922.696 112.023L922.558 111.969L890.59 192.81L890.646 192.831L877.061 226.796H841.829Z" fill="#C5A680"/>
<path d="M2.52344 390.733V293.764H13.1901V337.123H69.5707V293.764H80.2373V390.733H69.5707V346.681H13.1901V390.733H2.52344ZM98.6397 390.733L138.813 293.764H151.696L191.592 390.733H179.956L167.765 360.257H122.051L109.722 390.733H98.6397ZM125.791 351.114H164.025L144.908 303.599L125.791 351.114ZM238.88 392.257C230.568 392.257 223.318 390.087 217.131 385.746C211.036 381.406 206.557 375.31 203.694 367.461L213.391 363.443C215.884 369.815 219.255 374.572 223.503 377.712C227.844 380.852 233.015 382.421 239.018 382.421C246.96 382.421 253.286 379.882 257.996 374.802C262.706 369.631 265.061 362.704 265.061 354.023V293.764H275.728V354.162C275.728 361.919 274.204 368.661 271.156 374.387C268.201 380.113 263.953 384.546 258.412 387.685C252.963 390.733 246.452 392.257 238.88 392.257ZM325.628 392.257C317.316 392.257 310.066 390.087 303.879 385.746C297.784 381.406 293.305 375.31 290.442 367.461L300.139 363.443C302.632 369.815 306.003 374.572 310.251 377.712C314.592 380.852 319.763 382.421 325.766 382.421C333.708 382.421 340.034 379.882 344.744 374.802C349.454 369.631 351.809 362.704 351.809 354.023V293.764H362.476V354.162C362.476 361.919 360.952 368.661 357.905 374.387C354.949 380.113 350.701 384.546 345.16 387.685C339.711 390.733 333.2 392.257 325.628 392.257ZM450.919 392.257C444.547 392.257 438.96 391.102 434.157 388.794C429.355 386.485 425.615 383.253 422.937 379.097C420.258 374.941 418.919 370.139 418.919 364.69C418.919 360.811 419.566 357.348 420.859 354.3C422.244 351.16 424.507 348.205 427.647 345.435C430.786 342.664 435.035 339.801 440.391 336.846C437.159 332.783 434.85 329.088 433.465 325.764C432.172 322.347 431.525 318.791 431.525 315.097C431.525 310.757 432.541 306.878 434.573 303.461C436.605 299.952 439.375 297.227 442.885 295.288C446.486 293.256 450.504 292.24 454.936 292.24C459.184 292.24 462.924 293.118 466.157 294.872C469.481 296.535 472.067 298.89 473.914 301.937C475.854 304.892 476.823 308.356 476.823 312.327C476.823 316.852 475.577 320.915 473.083 324.517C470.59 328.119 466.665 331.49 461.308 334.63L454.382 338.785C458.168 343.034 462.324 347.374 466.849 351.807C471.375 356.24 475.992 360.627 480.702 364.967C483.011 361.273 484.904 357.21 486.382 352.777C487.952 348.344 489.198 343.726 490.122 338.924L499.542 340.448C498.341 346.358 496.771 351.899 494.832 357.071C492.892 362.15 490.491 366.86 487.628 371.201C490.584 373.787 493.539 376.28 496.494 378.681C499.449 380.99 502.22 383.16 504.806 385.192L498.572 392.534C495.986 390.502 493.262 388.378 490.399 386.162C487.628 383.853 484.812 381.498 481.949 379.097C477.978 383.345 473.314 386.623 467.957 388.932C462.693 391.149 457.014 392.257 450.919 392.257ZM448.98 332.413L456.875 327.842C460.292 325.81 462.832 323.547 464.494 321.054C466.249 318.56 467.126 315.744 467.126 312.604C467.126 309.187 465.926 306.324 463.525 304.015C461.123 301.706 458.168 300.552 454.659 300.552C450.781 300.552 447.548 301.891 444.962 304.569C442.469 307.247 441.222 310.711 441.222 314.959C441.222 317.822 441.776 320.592 442.885 323.27C444.085 325.856 446.117 328.904 448.98 332.413ZM451.473 383.53C456.09 383.53 460.385 382.652 464.356 380.898C468.419 379.051 472.021 376.419 475.161 373.002C469.805 368.107 464.587 363.166 459.507 358.179C454.428 353.1 449.857 348.205 445.794 343.495C441.453 345.804 437.99 348.021 435.404 350.145C432.911 352.269 431.156 354.485 430.14 356.794C429.124 359.01 428.616 361.55 428.616 364.413C428.616 370.139 430.694 374.756 434.85 378.266C439.098 381.775 444.639 383.53 451.473 383.53ZM598.75 392.257C590.531 392.257 583.42 390.548 577.417 387.131C571.414 383.622 566.797 378.681 563.564 372.309C560.332 365.937 558.716 358.41 558.716 349.729V293.764H569.383V349.729C569.383 356.378 570.583 362.15 572.984 367.045C575.385 371.94 578.802 375.726 583.235 378.404C587.668 381.082 592.84 382.421 598.75 382.421C604.753 382.421 609.925 381.082 614.265 378.404C618.698 375.726 622.115 371.94 624.516 367.045C626.918 362.15 628.118 356.378 628.118 349.729V293.764H638.785V349.729C638.785 358.41 637.122 365.937 633.798 372.309C630.565 378.681 625.948 383.622 619.945 387.131C614.034 390.548 606.97 392.257 598.75 392.257ZM665.396 390.733V293.764H680.357L713.465 362.612L746.434 293.764H761.395V390.733H751.283V305.954L713.326 383.807L675.37 306.093V390.733H665.396ZM789.886 390.733V293.764H831.444C837.816 293.764 843.357 294.918 848.067 297.227C852.777 299.536 856.425 302.768 859.011 306.924C861.689 311.08 863.028 315.975 863.028 321.608C863.028 327.98 861.135 333.475 857.348 338.093C853.654 342.618 848.667 345.804 842.387 347.651L864.136 390.733H852.361L831.582 349.036H800.552V390.733H789.886ZM800.552 340.032H830.751C837.308 340.032 842.526 338.37 846.405 335.045C850.376 331.72 852.361 327.241 852.361 321.608C852.361 316.067 850.376 311.634 846.405 308.309C842.526 304.985 837.308 303.322 830.751 303.322H800.552V340.032ZM877.615 390.733L917.788 293.764H930.671L970.567 390.733H958.93L946.74 360.257H901.026L888.697 390.733H877.615ZM904.766 351.114H943L923.883 303.599L904.766 351.114ZM988.954 390.733V293.764H999.62V337.123H1056V293.764H1066.67V390.733H1056V346.681H999.62V390.733H988.954Z" fill="#C5A680"/>
</g>
<defs>
<clipPath id="clip0_2227_29533">
<rect width="1067" height="393" fill="white" transform="translate(0.851562)"/>
</clipPath>
</defs>
</svg>
